# xmcd
#
# Track frame offsets: 
#        150
#        595
#        19047
#        29627
#        41487
#        59270
#        73600
#        84182
#        97072
#        106817
#        117397
#        131200
#        143997
#        157142
#
# Disc length: 2108 seconds
#
# Revision: 1
# Processed by: cddbd v1.5.2PL0 Copyright (c) Steve Scherf et al.
# Submitted via: ExactAudioCopy v1.0b3
#
DISCID=be083a0e
DTITLE=Ricky Skaggs and Kentucky Thunder - Bluegrass Rules!
DYEAR=1997
DGENRE=Bluegrass
TTITLE0=J. D.'s Words Of Wisdom
TTITLE1=Get Up John
TTITLE2=I Hope You've Learned
TTITLE3=Think Of What You've Done
TTITLE4=Another Night
TTITLE5=Drunken Driver
TTITLE6=Little Maggie
TTITLE7=Amanda Jewell
TTITLE8=If I Lose
TTITLE9=Ridin' That Midnight Train
TTITLE10=Rank Stranger
TTITLE11=Somehow Tonight
TTITLE12=Rawhide
TTITLE13=Well Glory
EXTD=
EXTT0=
EXTT1=
EXTT2=
EXTT3=
EXTT4=
EXTT5=
EXTT6=
EXTT7=
EXTT8=
EXTT9=
EXTT10=
EXTT11=
EXTT12=
EXTT13=
PLAYORDER=
